M48
; DRILL file {KiCad (5.1.10)-1} date 06/23/21 07:40:33
; FORMAT={-:-/ absolute / inch / decimal}
; #@! TF.CreationDate,2021-06-23T07:40:33+02:00
; #@! TF.GenerationSoftware,Kicad,Pcbnew,(5.1.10)-1
; #@! TF.FileFunction,Plated,1,2,PTH
FMAT,2
INCH
T1C0.0315
T2C0.0354
%
G90
G05
T1
X3.7008Y-3.3465
X3.7008Y-3.7465
X3.937Y-3.5433
X3.937Y-3.7795
X3.952Y-3.0465
X3.952Y-3.1465
X3.952Y-3.2465
X3.952Y-3.3465
X4.2323Y-3.5433
X4.2323Y-3.7795
X4.252Y-3.0465
X4.252Y-3.1465
X4.252Y-3.2465
X4.252Y-3.3465
X4.4094Y-3.5827
X4.4094Y-3.6614
X4.5276Y-3.0709
X4.5276Y-3.1496
X4.5276Y-3.3465
X4.5276Y-3.4252
T2
X3.6811Y-3.1299
X3.7795Y-3.0315
X3.7795Y-3.2283
T0
M30
