G04 #@! TF.GenerationSoftware,KiCad,Pcbnew,(5.1.10)-1*
G04 #@! TF.CreationDate,2021-06-23T07:40:26+02:00*
G04 #@! TF.ProjectId,inyector-audio,696e7965-6374-46f7-922d-617564696f2e,3.0*
G04 #@! TF.SameCoordinates,Original*
G04 #@! TF.FileFunction,Copper,L2,Bot*
G04 #@! TF.FilePolarity,Positive*
%FSLAX46Y46*%
G04 Gerber Fmt 4.6, Leading zero omitted, Abs format (unit mm)*
G04 Created by KiCad (PCBNEW (5.1.10)-1) date 2021-06-23 07:40:26*
%MOMM*%
%LPD*%
G01*
G04 APERTURE LIST*
G04 #@! TA.AperFunction,Profile*
%ADD10C,0.150000*%
G04 #@! TD*
G04 #@! TA.AperFunction,ComponentPad*
%ADD11R,1.600000X1.600000*%
G04 #@! TD*
G04 #@! TA.AperFunction,ComponentPad*
%ADD12O,1.600000X1.600000*%
G04 #@! TD*
G04 #@! TA.AperFunction,ComponentPad*
%ADD13C,1.600000*%
G04 #@! TD*
G04 #@! TA.AperFunction,ComponentPad*
%ADD14C,1.620000*%
G04 #@! TD*
G04 #@! TA.AperFunction,ComponentPad*
%ADD15R,1.350000X1.350000*%
G04 #@! TD*
G04 #@! TA.AperFunction,ComponentPad*
%ADD16O,1.350000X1.350000*%
G04 #@! TD*
G04 #@! TA.AperFunction,Conductor*
%ADD17C,0.250000*%
G04 #@! TD*
G04 APERTURE END LIST*
D10*
X85000000Y-71000000D02*
X120000000Y-71000000D01*
X85000000Y-101000000D02*
X85000000Y-71000000D01*
X120000000Y-101000000D02*
X85000000Y-101000000D01*
X120000000Y-71000000D02*
X120000000Y-101000000D01*
D11*
X108000000Y-85000000D03*
D12*
X100380000Y-77380000D03*
X108000000Y-82460000D03*
X100380000Y-79920000D03*
X108000000Y-79920000D03*
X100380000Y-82460000D03*
X108000000Y-77380000D03*
X100380000Y-85000000D03*
D13*
X100000000Y-90000000D03*
D12*
X107500000Y-90000000D03*
X107500000Y-96000000D03*
D13*
X100000000Y-96000000D03*
X94000000Y-85000000D03*
D12*
X94000000Y-95160000D03*
D14*
X96000000Y-77000000D03*
X93500000Y-79500000D03*
X96000000Y-82000000D03*
D15*
X115000000Y-80000000D03*
D16*
X115000000Y-78000000D03*
X115000000Y-85000000D03*
D15*
X115000000Y-87000000D03*
X112000000Y-91000000D03*
D16*
X112000000Y-93000000D03*
D17*
X93500000Y-79500000D02*
X96000000Y-77000000D01*
X96000000Y-77000000D02*
X97500000Y-78500000D01*
X97500000Y-78500000D02*
X97500000Y-79000000D01*
X98420000Y-79920000D02*
X100380000Y-79920000D01*
X97500000Y-79000000D02*
X98420000Y-79920000D01*
X100380000Y-79920000D02*
X101920000Y-79920000D01*
X104460000Y-82460000D02*
X108000000Y-82460000D01*
X101920000Y-79920000D02*
X104460000Y-82460000D01*
X100000000Y-90000000D02*
X103000000Y-90000000D01*
X103000000Y-90000000D02*
X104500000Y-88500000D01*
X104500000Y-88500000D02*
X104500000Y-84000000D01*
X104500000Y-84000000D02*
X106000000Y-82500000D01*
X108000000Y-89500000D02*
X107500000Y-90000000D01*
X108000000Y-85000000D02*
X108000000Y-89500000D01*
X107500000Y-90000000D02*
X107500000Y-96000000D01*
X109000000Y-96000000D02*
X112000000Y-93000000D01*
X107500000Y-96000000D02*
X109000000Y-96000000D01*
X115000000Y-92000000D02*
X115000000Y-87000000D01*
X114000000Y-93000000D02*
X115000000Y-92000000D01*
X112000000Y-93000000D02*
X114000000Y-93000000D01*
X100380000Y-77380000D02*
X100380000Y-75880000D01*
X100380000Y-75880000D02*
X99000000Y-74500000D01*
X99000000Y-74500000D02*
X94000000Y-74500000D01*
X94000000Y-74500000D02*
X89000000Y-79500000D01*
X89000000Y-79500000D02*
X89000000Y-95500000D01*
X89000000Y-95500000D02*
X92000000Y-98500000D01*
X97500000Y-98500000D02*
X100000000Y-96000000D01*
X92000000Y-98500000D02*
X97500000Y-98500000D01*
X100380000Y-85000000D02*
X97000000Y-88380000D01*
X97000000Y-88380000D02*
X97000000Y-92000000D01*
X97000000Y-92000000D02*
X98500000Y-93500000D01*
X98500000Y-93500000D02*
X102500000Y-93500000D01*
X102500000Y-93500000D02*
X104000000Y-95000000D01*
X104000000Y-95000000D02*
X104000000Y-97000000D01*
X104000000Y-97000000D02*
X105500000Y-98500000D01*
X105500000Y-98500000D02*
X113000000Y-98500000D01*
X113000000Y-98500000D02*
X118000000Y-93500000D01*
X118000000Y-93500000D02*
X118000000Y-78500000D01*
X117500000Y-78000000D02*
X115000000Y-78000000D01*
X118000000Y-78500000D02*
X117500000Y-78000000D01*
X115000000Y-78000000D02*
X112500000Y-78000000D01*
X111880000Y-77380000D02*
X108000000Y-77380000D01*
X112500000Y-78000000D02*
X111880000Y-77380000D01*
X94000000Y-85000000D02*
X100380000Y-85000000D01*
X108000000Y-79920000D02*
X110420000Y-79920000D01*
X110420000Y-79920000D02*
X112000000Y-81500000D01*
X112000000Y-81500000D02*
X112000000Y-91000000D01*
X96460000Y-82460000D02*
X96000000Y-82000000D01*
X100380000Y-82460000D02*
X96460000Y-82460000D01*
X90500000Y-83500000D02*
X90500000Y-91660000D01*
X92000000Y-82000000D02*
X90500000Y-83500000D01*
X90500000Y-91660000D02*
X94000000Y-95160000D01*
X96000000Y-82000000D02*
X92000000Y-82000000D01*
X115000000Y-85000000D02*
X115000000Y-80000000D01*
M02*
