G04 #@! TF.GenerationSoftware,KiCad,Pcbnew,(5.1.10)-1*
G04 #@! TF.CreationDate,2021-06-23T07:40:26+02:00*
G04 #@! TF.ProjectId,inyector-audio,696e7965-6374-46f7-922d-617564696f2e,3.0*
G04 #@! TF.SameCoordinates,Original*
G04 #@! TF.FileFunction,Other,User*
%FSLAX46Y46*%
G04 Gerber Fmt 4.6, Leading zero omitted, Abs format (unit mm)*
G04 Created by KiCad (PCBNEW (5.1.10)-1) date 2021-06-23 07:40:26*
%MOMM*%
%LPD*%
G01*
G04 APERTURE LIST*
G04 #@! TA.AperFunction,Profile*
%ADD10C,0.150000*%
G04 #@! TD*
%ADD11C,0.050000*%
G04 APERTURE END LIST*
D10*
X85000000Y-71000000D02*
X120000000Y-71000000D01*
X85000000Y-101000000D02*
X85000000Y-71000000D01*
X120000000Y-101000000D02*
X85000000Y-101000000D01*
X120000000Y-71000000D02*
X120000000Y-101000000D01*
D11*
X98850000Y-86600000D02*
X109550000Y-86600000D01*
X98850000Y-75800000D02*
X98850000Y-86600000D01*
X109550000Y-75800000D02*
X98850000Y-75800000D01*
X109550000Y-86600000D02*
X109550000Y-75800000D01*
X108550000Y-88450000D02*
X98950000Y-88450000D01*
X108550000Y-91550000D02*
X108550000Y-88450000D01*
X98950000Y-91550000D02*
X108550000Y-91550000D01*
X98950000Y-88450000D02*
X98950000Y-91550000D01*
X98950000Y-94450000D02*
X98950000Y-97550000D01*
X98950000Y-97550000D02*
X108550000Y-97550000D01*
X108550000Y-97550000D02*
X108550000Y-94450000D01*
X108550000Y-94450000D02*
X98950000Y-94450000D01*
X95500000Y-96210000D02*
X95500000Y-83950000D01*
X92500000Y-96210000D02*
X95500000Y-96210000D01*
X92500000Y-83950000D02*
X92500000Y-96210000D01*
X95500000Y-83950000D02*
X92500000Y-83950000D01*
X92250000Y-83100000D02*
X97100000Y-83100000D01*
X92250000Y-75900000D02*
X92250000Y-83100000D01*
X97100000Y-75900000D02*
X92250000Y-75900000D01*
X97100000Y-83100000D02*
X97100000Y-75900000D01*
X116500000Y-81500000D02*
X116500000Y-76500000D01*
X116500000Y-76500000D02*
X113500000Y-76500000D01*
X113500000Y-76500000D02*
X113500000Y-81500000D01*
X113500000Y-81500000D02*
X116500000Y-81500000D01*
X113500000Y-88500000D02*
X116500000Y-88500000D01*
X113500000Y-83500000D02*
X113500000Y-88500000D01*
X116500000Y-83500000D02*
X113500000Y-83500000D01*
X116500000Y-88500000D02*
X116500000Y-83500000D01*
X110500000Y-89500000D02*
X110500000Y-94500000D01*
X110500000Y-94500000D02*
X113500000Y-94500000D01*
X113500000Y-94500000D02*
X113500000Y-89500000D01*
X113500000Y-89500000D02*
X110500000Y-89500000D01*
M02*
