M48
; DRILL file {KiCad (5.1.10)-1} date 06/18/21 21:03:25
; FORMAT={-:-/ absolute / metric / decimal}
; #@! TF.CreationDate,2021-06-18T21:03:25+02:00
; #@! TF.GenerationSoftware,Kicad,Pcbnew,(5.1.10)-1
; #@! TF.FileFunction,Plated,1,2,PTH
FMAT,2
METRIC
T1C0.800
T2C0.900
T3C1.320
%
G90
G05
T1
X87.29Y-73.66
X87.29Y-78.74
X94.79Y-73.66
X94.79Y-78.74
X101.14Y-78.74
X101.14Y-88.9
X104.95Y-71.12
X104.95Y-73.66
X104.95Y-76.2
X104.95Y-78.74
X112.57Y-71.12
X112.57Y-73.66
X112.57Y-76.2
X112.57Y-78.74
T2
X98.64Y-73.7
X101.14Y-71.2
X101.14Y-76.2
T3
X89.71Y-88.9
X94.71Y-88.9
X106.22Y-88.9
X111.22Y-88.9
T0
M30
