M48
; DRILL file {KiCad (5.1.10)-1} date 06/16/21 21:30:50
; FORMAT={-:-/ absolute / inch / decimal}
; #@! TF.CreationDate,2021-06-16T21:30:50+02:00
; #@! TF.GenerationSoftware,Kicad,Pcbnew,(5.1.10)-1
; #@! TF.FileFunction,Plated,1,2,PTH
FMAT,2
INCH
T1C0.0315
T2C0.0354
T3C0.0520
T4C0.1181
%
G90
G05
T1
X3.4366Y-2.9
X3.4366Y-3.1
X3.7319Y-2.9
X3.7319Y-3.1
X3.9819Y-3.1
X3.9819Y-3.5
X4.1319Y-2.8
X4.1319Y-2.9
X4.1319Y-3.0
X4.1319Y-3.1
X4.4319Y-2.8
X4.4319Y-2.9
X4.4319Y-3.0
X4.4319Y-3.1
T2
X3.8835Y-2.9016
X3.9819Y-2.8031
X3.9819Y-3.0
T3
X3.5319Y-3.5
X3.7287Y-3.5
X4.1819Y-3.5
X4.3787Y-3.5
T4
X3.3071Y-2.6378
X3.3071Y-3.8583
X4.5669Y-2.6378
X4.5669Y-3.8583
T0
M30
