G04 #@! TF.GenerationSoftware,KiCad,Pcbnew,(5.1.10)-1*
G04 #@! TF.CreationDate,2021-06-16T21:30:33+02:00*
G04 #@! TF.ProjectId,inyector-audio,696e7965-6374-46f7-922d-617564696f2e,2.0*
G04 #@! TF.SameCoordinates,Original*
G04 #@! TF.FileFunction,Copper,L2,Bot*
G04 #@! TF.FilePolarity,Positive*
%FSLAX46Y46*%
G04 Gerber Fmt 4.6, Leading zero omitted, Abs format (unit mm)*
G04 Created by KiCad (PCBNEW (5.1.10)-1) date 2021-06-16 21:30:33*
%MOMM*%
%LPD*%
G01*
G04 APERTURE LIST*
G04 #@! TA.AperFunction,ComponentPad*
%ADD10R,1.600000X1.600000*%
G04 #@! TD*
G04 #@! TA.AperFunction,ComponentPad*
%ADD11O,1.600000X1.600000*%
G04 #@! TD*
G04 #@! TA.AperFunction,ComponentPad*
%ADD12C,1.600000*%
G04 #@! TD*
G04 #@! TA.AperFunction,ComponentPad*
%ADD13O,1.980000X3.960000*%
G04 #@! TD*
G04 #@! TA.AperFunction,ComponentPad*
%ADD14R,1.980000X3.960000*%
G04 #@! TD*
G04 #@! TA.AperFunction,ComponentPad*
%ADD15C,1.620000*%
G04 #@! TD*
G04 #@! TA.AperFunction,ComponentPad*
%ADD16C,4.000000*%
G04 #@! TD*
G04 #@! TA.AperFunction,Conductor*
%ADD17C,1.500000*%
G04 #@! TD*
G04 APERTURE END LIST*
D10*
X112570000Y-78740000D03*
D11*
X104950000Y-71120000D03*
X112570000Y-76200000D03*
X104950000Y-73660000D03*
X112570000Y-73660000D03*
X104950000Y-76200000D03*
X112570000Y-71120000D03*
X104950000Y-78740000D03*
D12*
X94790000Y-78740000D03*
D11*
X87290000Y-78740000D03*
X87290000Y-73660000D03*
D12*
X94790000Y-73660000D03*
D13*
X94710000Y-88900000D03*
D14*
X89710000Y-88900000D03*
X106220000Y-88900000D03*
D13*
X111220000Y-88900000D03*
D12*
X101140000Y-88900000D03*
D11*
X101140000Y-78740000D03*
D15*
X101140000Y-71200000D03*
X98640000Y-73700000D03*
X101140000Y-76200000D03*
D16*
X84000000Y-67000000D03*
X116000000Y-98000000D03*
X116000000Y-67000000D03*
X84000000Y-98000000D03*
D17*
X94790000Y-78740000D02*
X96260000Y-78740000D01*
X98640000Y-76360000D02*
X98640000Y-73700000D01*
X96260000Y-78740000D02*
X98640000Y-76360000D01*
X98640000Y-73700000D02*
X101140000Y-71200000D01*
X101140000Y-71200000D02*
X103440000Y-73500000D01*
X104790000Y-73500000D02*
X104950000Y-73660000D01*
X103440000Y-73500000D02*
X104790000Y-73500000D01*
X104950000Y-73660000D02*
X107660000Y-73660000D01*
X110200000Y-76200000D02*
X112570000Y-76200000D01*
X107660000Y-73660000D02*
X110200000Y-76200000D01*
X87290000Y-73660000D02*
X87290000Y-78740000D01*
X87290000Y-86480000D02*
X89710000Y-88900000D01*
X87290000Y-78740000D02*
X87290000Y-86480000D01*
X89710000Y-88900000D02*
X89710000Y-92210000D01*
X89710000Y-92210000D02*
X92000000Y-94500000D01*
X111220000Y-93280000D02*
X111220000Y-88900000D01*
X110000000Y-94500000D02*
X111220000Y-93280000D01*
X112570000Y-78740000D02*
X108760000Y-78740000D01*
X108760000Y-78740000D02*
X103500000Y-84000000D01*
X103500000Y-93000000D02*
X105000000Y-94500000D01*
X103500000Y-84000000D02*
X103500000Y-93000000D01*
X105000000Y-94500000D02*
X110000000Y-94500000D01*
X92000000Y-94500000D02*
X105000000Y-94500000D01*
X104950000Y-69950000D02*
X104950000Y-71120000D01*
X104000000Y-69000000D02*
X104950000Y-69950000D01*
X99450000Y-69000000D02*
X104000000Y-69000000D01*
X94790000Y-73660000D02*
X99450000Y-69000000D01*
X94710000Y-88900000D02*
X101140000Y-88900000D01*
X101140000Y-82550000D02*
X104950000Y-78740000D01*
X101140000Y-88900000D02*
X101140000Y-82550000D01*
X94710000Y-88900000D02*
X94710000Y-85210000D01*
X94710000Y-85210000D02*
X91000000Y-81500000D01*
X91000000Y-81500000D02*
X91000000Y-71000000D01*
X91000000Y-71000000D02*
X95000000Y-67000000D01*
X95000000Y-67000000D02*
X111000000Y-67000000D01*
X112570000Y-68570000D02*
X112570000Y-71120000D01*
X111000000Y-67000000D02*
X112570000Y-68570000D01*
X112570000Y-73660000D02*
X114160000Y-73660000D01*
X114160000Y-73660000D02*
X115000000Y-74500000D01*
X115000000Y-74500000D02*
X115000000Y-80000000D01*
X115000000Y-80000000D02*
X111000000Y-84000000D01*
X111000000Y-84000000D02*
X107500000Y-84000000D01*
X106220000Y-85280000D02*
X106220000Y-88900000D01*
X107500000Y-84000000D02*
X106220000Y-85280000D01*
X101140000Y-76200000D02*
X104950000Y-76200000D01*
X101140000Y-76200000D02*
X101140000Y-78740000D01*
M02*
