M48
; DRILL file {KiCad (5.1.10)-1} date 06/28/21 17:12:39
; FORMAT={-:-/ absolute / metric / decimal}
; #@! TF.CreationDate,2021-06-28T17:12:39+02:00
; #@! TF.GenerationSoftware,Kicad,Pcbnew,(5.1.10)-1
; #@! TF.FileFunction,Plated,1,2,PTH
FMAT,2
METRIC
T1C0.800
T2C0.900
T3C1.100
T4C1.200
T5C1.500
%
G90
G05
T1
X95.0Y-74.0
X98.0Y-53.5
X98.0Y-68.74
X102.5Y-74.0
X114.5Y-78.0
X117.0Y-78.0
X119.5Y-51.76
X119.5Y-67.0
X123.5Y-72.0
X123.5Y-74.5
X125.0Y-51.5
X125.0Y-66.74
T2
X88.0Y-69.5
X90.54Y-69.5
T3
X104.5Y-55.5
X104.5Y-65.66
X106.0Y-70.5
X116.16Y-70.5
T4
X87.54Y-57.0
X87.54Y-60.5
X133.46Y-55.5
X133.46Y-59.0
X133.46Y-62.5
X133.46Y-71.0
X133.46Y-74.5
T5
X113.0Y-53.88
X113.0Y-58.96
X113.0Y-64.04
T0
M30
